<svg width="330" height="46" viewBox="0 0 330 46" fill="none" xmlns="http://www.w3.org/2000/svg">
<rect x="0.5" y="0.5" width="329" height="45" stroke="black"/>
<rect x="1" y="1" width="328" height="44" rx="2" fill="white"/>
<g clip-path="url(#clip0_130_112)">
<path d="M168.205 23.6338L161.532 14H156V32H161.794V22.367L168.468 32H174V14H168.205V23.6338Z" fill="white"/>
</g>
<path d="M97 13C95.6868 13 94.3864 13.2587 93.1732 13.7612C91.9599 14.2638 90.8575 15.0003 89.9289 15.9289C88.0536 17.8043 87 20.3478 87 23C87 27.42 89.87 31.17 93.84 32.5C94.34 32.58 94.5 32.27 94.5 32V30.31C91.73 30.91 91.14 28.97 91.14 28.97C90.68 27.81 90.03 27.5 90.03 27.5C89.12 26.88 90.1 26.9 90.1 26.9C91.1 26.97 91.63 27.93 91.63 27.93C92.5 29.45 93.97 29 94.54 28.76C94.63 28.11 94.89 27.67 95.17 27.42C92.95 27.17 90.62 26.31 90.62 22.5C90.62 21.39 91 20.5 91.65 19.79C91.55 19.54 91.2 18.5 91.75 17.15C91.75 17.15 92.59 16.88 94.5 18.17C95.29 17.95 96.15 17.84 97 17.84C97.85 17.84 98.71 17.95 99.5 18.17C101.41 16.88 102.25 17.15 102.25 17.15C102.8 18.5 102.45 19.54 102.35 19.79C103 20.5 103.38 21.39 103.38 22.5C103.38 26.32 101.04 27.16 98.81 27.41C99.17 27.72 99.5 28.33 99.5 29.26V32C99.5 32.27 99.66 32.59 100.17 32.5C104.14 31.16 107 27.42 107 23C107 21.6868 106.741 20.3864 106.239 19.1732C105.736 17.9599 105 16.8575 104.071 15.9289C103.142 15.0003 102.04 14.2638 100.827 13.7612C99.6136 13.2587 98.3132 13 97 13Z" fill="black"/>
<path d="M129.153 21.0398C129.044 20.6951 128.896 20.3864 128.71 20.1136C128.528 19.8371 128.311 19.6023 128.057 19.4091C127.803 19.2121 127.513 19.0625 127.188 18.9602C126.866 18.858 126.511 18.8068 126.125 18.8068C125.47 18.8068 124.879 18.9754 124.352 19.3125C123.826 19.6496 123.409 20.1439 123.102 20.7955C122.799 21.4432 122.648 22.2367 122.648 23.1761C122.648 24.1193 122.801 24.9167 123.108 25.5682C123.415 26.2197 123.835 26.714 124.369 27.0511C124.903 27.3883 125.511 27.5568 126.193 27.5568C126.826 27.5568 127.377 27.428 127.847 27.1705C128.32 26.9129 128.686 26.5492 128.943 26.0795C129.205 25.6061 129.335 25.0492 129.335 24.4091L129.79 24.4943H126.46V23.0455H131.034V24.3693C131.034 25.3466 130.826 26.1951 130.409 26.9148C129.996 27.6307 129.424 28.1837 128.693 28.5739C127.966 28.964 127.133 29.1591 126.193 29.1591C125.14 29.1591 124.216 28.9167 123.42 28.4318C122.629 27.947 122.011 27.2595 121.568 26.3693C121.125 25.4754 120.903 24.4148 120.903 23.1875C120.903 22.2595 121.032 21.4261 121.29 20.6875C121.547 19.9489 121.909 19.322 122.375 18.8068C122.845 18.2879 123.396 17.892 124.028 17.6193C124.665 17.3428 125.36 17.2045 126.114 17.2045C126.742 17.2045 127.328 17.2973 127.869 17.483C128.415 17.6686 128.9 17.9318 129.324 18.2727C129.752 18.6136 130.106 19.0189 130.386 19.4886C130.667 19.9545 130.856 20.4716 130.955 21.0398H129.153ZM133.673 29V20.2727H135.372V29H133.673ZM134.531 18.9261C134.236 18.9261 133.982 18.8277 133.77 18.6307C133.562 18.4299 133.457 18.1913 133.457 17.9148C133.457 17.6345 133.562 17.3958 133.77 17.1989C133.982 16.9981 134.236 16.8977 134.531 16.8977C134.827 16.8977 135.079 16.9981 135.287 17.1989C135.499 17.3958 135.605 17.6345 135.605 17.9148C135.605 18.1913 135.499 18.4299 135.287 18.6307C135.079 18.8277 134.827 18.9261 134.531 18.9261ZM141.732 20.2727V21.6364H136.964V20.2727H141.732ZM138.243 18.1818H139.942V26.4375C139.942 26.767 139.991 27.0152 140.089 27.1818C140.188 27.3447 140.315 27.4564 140.47 27.517C140.629 27.5739 140.802 27.6023 140.987 27.6023C141.124 27.6023 141.243 27.5928 141.345 27.5739C141.447 27.5549 141.527 27.5398 141.584 27.5284L141.891 28.9318C141.792 28.9697 141.652 29.0076 141.47 29.0455C141.288 29.0871 141.061 29.1098 140.788 29.1136C140.341 29.1212 139.925 29.0417 139.538 28.875C139.152 28.7083 138.839 28.4508 138.601 28.1023C138.362 27.7538 138.243 27.3163 138.243 26.7898V18.1818ZM145.497 23.8182V29H143.798V17.3636H145.474V21.6932H145.582C145.787 21.2235 146.099 20.8504 146.52 20.5739C146.94 20.2973 147.49 20.1591 148.168 20.1591C148.766 20.1591 149.289 20.2822 149.736 20.5284C150.187 20.7746 150.535 21.142 150.781 21.6307C151.031 22.1155 151.156 22.7216 151.156 23.4489V29H149.457V23.6534C149.457 23.0133 149.293 22.517 148.963 22.1648C148.634 21.8087 148.175 21.6307 147.588 21.6307C147.187 21.6307 146.827 21.7159 146.509 21.8864C146.194 22.0568 145.946 22.3068 145.764 22.6364C145.586 22.9621 145.497 23.3561 145.497 23.8182ZM158.952 25.3807V20.2727H160.656V29H158.986V27.4886H158.895C158.694 27.9545 158.372 28.3428 157.929 28.6534C157.49 28.9602 156.942 29.1136 156.287 29.1136C155.726 29.1136 155.23 28.9905 154.798 28.7443C154.37 28.4943 154.033 28.125 153.787 27.6364C153.545 27.1477 153.423 26.5436 153.423 25.8239V20.2727H155.122V25.6193C155.122 26.214 155.287 26.6875 155.616 27.0398C155.946 27.392 156.374 27.5682 156.901 27.5682C157.219 27.5682 157.535 27.4886 157.849 27.3295C158.168 27.1705 158.431 26.9299 158.639 26.608C158.851 26.286 158.955 25.8769 158.952 25.3807ZM163.075 29V17.3636H164.774V21.6875H164.876C164.975 21.5057 165.117 21.2955 165.303 21.0568C165.488 20.8182 165.746 20.6098 166.075 20.4318C166.405 20.25 166.84 20.1591 167.382 20.1591C168.087 20.1591 168.715 20.3371 169.268 20.6932C169.821 21.0492 170.255 21.5625 170.57 22.233C170.888 22.9034 171.047 23.7102 171.047 24.6534C171.047 25.5966 170.89 26.4053 170.575 27.0795C170.261 27.75 169.829 28.267 169.28 28.6307C168.731 28.9905 168.104 29.1705 167.399 29.1705C166.869 29.1705 166.435 29.0814 166.098 28.9034C165.765 28.7254 165.503 28.517 165.314 28.2784C165.125 28.0398 164.979 27.8277 164.876 27.642H164.734V29H163.075ZM164.74 24.6364C164.74 25.25 164.829 25.7879 165.007 26.25C165.185 26.7121 165.443 27.0739 165.78 27.3352C166.117 27.5928 166.53 27.7216 167.018 27.7216C167.526 27.7216 167.95 27.5871 168.291 27.3182C168.632 27.0455 168.89 26.6761 169.064 26.2102C169.242 25.7443 169.331 25.2197 169.331 24.6364C169.331 24.0606 169.244 23.5436 169.07 23.0852C168.899 22.6269 168.642 22.2652 168.297 22C167.956 21.7348 167.53 21.6023 167.018 21.6023C166.526 21.6023 166.109 21.7292 165.768 21.983C165.431 22.2367 165.176 22.5909 165.001 23.0455C164.827 23.5 164.74 24.0303 164.74 24.6364ZM172.613 27.368H185.717V28.472H172.613V27.368ZM178.469 24.264H179.797V27.832H178.469V24.264ZM174.197 16.856H184.101V21.24H175.557V24.136H174.245V20.168H182.789V17.928H174.197V16.856ZM174.245 23.576H184.437V24.664H174.245V23.576ZM195.374 17.032H196.462V19.624C196.462 22.952 194.67 26.04 192.302 27.24L191.486 26.152C193.63 25.128 195.374 22.36 195.374 19.624V17.032ZM195.598 17.032H196.686V19.624C196.686 22.264 198.414 24.92 200.558 25.912L199.758 26.968C197.406 25.816 195.598 22.84 195.598 19.624V17.032ZM202.062 15.768H203.39V30.264H202.062V15.768ZM209.836 17.272H210.924V18.44C210.924 21.096 209.324 23.304 206.908 24.168L206.204 23.128C208.396 22.36 209.836 20.504 209.836 18.44V17.272ZM210.076 17.272H211.164V18.424C211.164 20.344 212.556 22.12 214.684 22.84L213.996 23.88C211.612 23.048 210.076 20.92 210.076 18.424V17.272ZM206.62 16.792H214.348V17.88H206.62V16.792ZM216.172 15.784H217.5V24.488H216.172V15.784ZM217.132 19.592H219.644V20.696H217.132V19.592ZM208.108 25.256H217.5V30.248H216.172V26.36H208.108V25.256ZM230.795 15.784H232.123V30.248H230.795V15.784ZM231.803 21.72H234.491V22.84H231.803V21.72ZM220.923 18.088H229.451V19.176H220.923V18.088ZM225.243 20.376C227.291 20.376 228.763 21.752 228.763 23.704C228.763 25.656 227.291 27.032 225.243 27.032C223.211 27.032 221.723 25.656 221.723 23.704C221.723 21.752 223.211 20.376 225.243 20.376ZM225.243 21.48C223.931 21.48 222.987 22.392 222.987 23.704C222.987 25 223.931 25.928 225.243 25.928C226.555 25.928 227.499 25 227.499 23.704C227.499 22.392 226.555 21.48 225.243 21.48ZM224.555 15.96H225.883V18.584H224.555V15.96ZM246.25 15.784H247.578V30.248H246.25V15.784ZM242.01 17.336H243.322C243.322 21.528 241.434 25.192 236.602 27.56L235.898 26.488C240.074 24.472 242.01 21.4 242.01 17.56V17.336ZM236.554 17.336H242.586V18.424H236.554V17.336Z" fill="black"/>
<defs>
<clipPath id="clip0_130_112">
<rect width="18" height="18" fill="white" transform="translate(156 14)"/>
</clipPath>
</defs>
</svg>
