<svg width="328" height="44" viewBox="0 0 328 44" fill="none" xmlns="http://www.w3.org/2000/svg">
<rect width="328" height="44" rx="2" fill="#03C75A"/>
<g clip-path="url(#clip0_130_104)">
<path d="M98.2048 22.6338L91.532 13H86V31H91.7945V21.367L98.468 31H104V13H98.2048V22.6338Z" fill="white"/>
</g>
<path d="M121.488 16.336H122.8V24.816H121.488V16.336ZM121.488 24.432H122.416C124.096 24.432 125.664 24.352 127.488 23.984L127.664 25.12C125.776 25.504 124.16 25.584 122.416 25.584H121.488V24.432ZM131.808 14.784H133.088V29.248H131.808V14.784ZM125.504 19.632H129.12V20.736H125.504V19.632ZM128.752 15.12H130V28.512H128.752V15.12ZM146.015 14.768H147.343V29.264H146.015V14.768ZM139.711 15.888C141.855 15.888 143.391 17.856 143.391 20.928C143.391 24.016 141.855 25.984 139.711 25.984C137.583 25.984 136.047 24.016 136.047 20.928C136.047 17.856 137.583 15.888 139.711 15.888ZM139.711 17.088C138.303 17.088 137.311 18.592 137.311 20.928C137.311 23.28 138.303 24.816 139.711 24.816C141.135 24.816 142.111 23.28 142.111 20.928C142.111 18.592 141.135 17.088 139.711 17.088ZM160.83 14.768H162.142V29.264H160.83V14.768ZM157.006 20.144H161.214V21.232H157.006V20.144ZM150.814 15.92H152.126V19.68H156.142V15.92H157.454V25.632H150.814V15.92ZM152.126 20.736V24.528H156.142V20.736H152.126ZM164.956 26.368H178.06V27.472H164.956V26.368ZM170.812 23.264H172.14V26.832H170.812V23.264ZM166.54 15.856H176.444V20.24H167.9V23.136H166.588V19.168H175.132V16.928H166.54V15.856ZM166.588 22.576H176.78V23.664H166.588V22.576ZM187.717 16.032H188.805V18.624C188.805 21.952 187.013 25.04 184.645 26.24L183.829 25.152C185.973 24.128 187.717 21.36 187.717 18.624V16.032ZM187.941 16.032H189.029V18.624C189.029 21.264 190.757 23.92 192.901 24.912L192.101 25.968C189.749 24.816 187.941 21.84 187.941 18.624V16.032ZM194.405 14.768H195.733V29.264H194.405V14.768ZM202.18 16.272H203.268V17.44C203.268 20.096 201.668 22.304 199.252 23.168L198.548 22.128C200.74 21.36 202.18 19.504 202.18 17.44V16.272ZM202.42 16.272H203.508V17.424C203.508 19.344 204.9 21.12 207.028 21.84L206.34 22.88C203.956 22.048 202.42 19.92 202.42 17.424V16.272ZM198.964 15.792H206.692V16.88H198.964V15.792ZM208.516 14.784H209.844V23.488H208.516V14.784ZM209.476 18.592H211.988V19.696H209.476V18.592ZM200.452 24.256H209.844V29.248H208.516V25.36H200.452V24.256ZM223.139 14.784H224.467V29.248H223.139V14.784ZM224.147 20.72H226.835V21.84H224.147V20.72ZM213.267 17.088H221.795V18.176H213.267V17.088ZM217.587 19.376C219.635 19.376 221.107 20.752 221.107 22.704C221.107 24.656 219.635 26.032 217.587 26.032C215.555 26.032 214.067 24.656 214.067 22.704C214.067 20.752 215.555 19.376 217.587 19.376ZM217.587 20.48C216.275 20.48 215.331 21.392 215.331 22.704C215.331 24 216.275 24.928 217.587 24.928C218.899 24.928 219.843 24 219.843 22.704C219.843 21.392 218.899 20.48 217.587 20.48ZM216.899 14.96H218.227V17.584H216.899V14.96ZM238.594 14.784H239.922V29.248H238.594V14.784ZM234.354 16.336H235.666C235.666 20.528 233.778 24.192 228.946 26.56L228.242 25.488C232.418 23.472 234.354 20.4 234.354 16.56V16.336ZM228.898 16.336H234.93V17.424H228.898V16.336Z" fill="white"/>
<defs>
<clipPath id="clip0_130_104">
<rect width="18" height="18" fill="white" transform="translate(86 13)"/>
</clipPath>
</defs>
</svg>
