<svg width="80" height="80" viewBox="0 0 80 80" fill="none" xmlns="http://www.w3.org/2000/svg">
<path d="M39.9993 6.66663C21.5893 6.66663 6.66602 21.59 6.66602 40C6.66602 58.41 21.5893 73.3333 39.9993 73.3333C58.4093 73.3333 73.3327 58.41 73.3327 40C73.3327 21.59 58.4093 6.66663 39.9993 6.66663Z" stroke="black" stroke-width="1.5" stroke-linecap="round" stroke-linejoin="round"/>
<path d="M14.2363 61.1533C14.2363 61.1533 21.6663 51.6667 39.9997 51.6667C58.333 51.6667 65.7663 61.1533 65.7663 61.1533M39.9997 40C42.6518 40 45.1954 38.9464 47.0707 37.0711C48.9461 35.1957 49.9997 32.6522 49.9997 30C49.9997 27.3478 48.9461 24.8043 47.0707 22.9289C45.1954 21.0536 42.6518 20 39.9997 20C37.3475 20 34.804 21.0536 32.9286 22.9289C31.0532 24.8043 29.9997 27.3478 29.9997 30C29.9997 32.6522 31.0532 35.1957 32.9286 37.0711C34.804 38.9464 37.3475 40 39.9997 40Z" stroke="black" stroke-width="1.5" stroke-linecap="round" stroke-linejoin="round"/>
</svg>
